<svg width="500" height="500" viewBox="0 0 500 500" fill="none" xmlns="http://www.w3.org/2000/svg">
<path d="M196.869 257.706L331.967 162.14C334.395 160.427 336.893 164.198 334.808 166.419L223.313 285.454C219.394 289.644 216.866 295.252 216.15 301.338L212.352 333.665C211.849 337.982 206.57 338.41 205.533 334.232L190.926 275.283C189.253 268.559 191.691 261.377 196.869 257.706Z" fill="#C3C3C7"/>
<path d="M105.299 243.848L174.425 273.481L201.181 372.31C202.893 378.639 209.632 380.979 214.105 376.779L252.637 340.701C256.676 336.921 262.429 336.732 266.65 340.252L336.148 398.204C340.933 402.199 347.712 399.187 348.912 392.546L399.823 111.278C401.133 104.024 394.927 97.9721 388.913 100.644L105.218 226.341C98.217 229.442 98.2779 240.826 105.299 243.848ZM196.869 257.706L331.967 162.14C334.395 160.427 336.893 164.198 334.808 166.419L223.313 285.454C219.394 289.644 216.866 295.252 216.15 301.338L212.352 333.665C211.849 337.982 206.57 338.41 205.533 334.232L190.926 275.283C189.253 268.559 191.691 261.377 196.869 257.706Z" fill="white"/>
</svg>
